<svg width="41" height="41" viewBox="0 0 41 41" fill="none" xmlns="http://www.w3.org/2000/svg">
<g clip-path="url(#clip0_2_50)">
<path d="M22.2254 22.5295C23.2795 25.285 24.0568 28.1209 24.5505 31.025C20.7375 32.4959 16.6323 31.7835 13.5693 29.3936C15.8123 25.8778 18.6755 23.5887 22.2254 22.5295ZM21.32 20.3326C21.0757 19.7859 20.8229 19.2427 20.5564 18.7011C17.3908 19.6988 13.6069 20.2028 9.225 20.2096L9.20792 20.5C9.20792 23.2402 10.1919 25.7565 11.8234 27.7143C14.297 24.0021 17.4711 21.537 21.32 20.3326ZM15.4057 10.4379C12.505 11.9122 10.3337 14.596 9.54275 17.8265C13.3626 17.7991 16.6665 17.3806 19.4357 16.5674C18.2638 14.4679 16.9227 12.423 15.4057 10.4379ZM27.3829 11.5705C25.4747 10.098 23.0933 9.20962 20.5 9.20962C19.5416 9.20962 18.6174 9.34287 17.7308 9.56837C19.2222 11.574 20.5461 13.641 21.7044 15.7611C24.1165 14.7395 26.0094 13.3404 27.3829 11.5705ZM41 8.54167V32.4583C41 37.175 37.1768 41 32.4583 41H8.54167C3.82325 41 0 37.175 0 32.4583V8.54167C0 3.82496 3.82325 0 8.54167 0H32.4583C37.1768 0 41 3.82496 41 8.54167ZM34.1667 20.5C34.1667 12.9526 28.0474 6.83333 20.5 6.83333C12.9526 6.83333 6.83333 12.9526 6.83333 20.5C6.83333 28.0474 12.9526 34.1667 20.5 34.1667C28.0474 34.1667 34.1667 28.0474 34.1667 20.5ZM22.796 17.8658C23.1035 18.4995 23.3905 19.1385 23.6707 19.7791C26.129 19.3554 28.8264 19.381 31.7579 19.8628C31.6144 17.3379 30.6509 15.0333 29.1151 13.2174C27.54 15.1803 25.4251 16.728 22.796 17.8658ZM24.5812 22.029C25.5362 24.5846 26.269 27.2052 26.7662 29.8839C29.3287 28.167 31.1412 25.4251 31.6417 22.2528C29.069 21.8069 26.7166 21.7283 24.5812 22.029Z" fill="#EA4C89"/>
</g>
<defs>
<clipPath id="clip0_2_50">
<rect width="41" height="41" fill="white"/>
</clipPath>
</defs>
</svg>
