<svg width="41" height="41" viewBox="0 0 41 41" fill="none" xmlns="http://www.w3.org/2000/svg">
<g clip-path="url(#clip0_2_48)">
<path d="M32.4583 0H8.54167C3.82496 0 0 3.82496 0 8.54167V32.4583C0 37.175 3.82496 41 8.54167 41H32.4583C37.1768 41 41 37.175 41 32.4583V8.54167C41 3.82496 37.1768 0 32.4583 0ZM24.8289 33.4663C24.137 33.5995 23.9167 33.1741 23.9167 32.8102V29.0605C23.9167 27.7843 23.4691 26.9541 22.9771 26.5304C26.0213 26.1922 29.2193 25.0356 29.2193 19.7876C29.2193 18.2945 28.6863 17.0748 27.8134 16.1198C27.9535 15.7748 28.4215 14.3842 27.6784 12.5033C27.6784 12.5033 26.5321 12.136 23.9235 13.9041C22.8302 13.5966 21.6617 13.448 20.5 13.4412C19.3383 13.4463 18.1698 13.5966 17.0782 13.9007C14.4679 12.1326 13.3199 12.4999 13.3199 12.4999C12.5785 14.3825 13.0465 15.7713 13.1883 16.1181C12.3137 17.0748 11.7807 18.2928 11.7807 19.7859C11.7807 25.0203 14.9701 26.1939 18.0075 26.5407C17.6163 26.8823 17.2627 27.4837 17.1397 28.3686C16.359 28.7171 14.3825 29.3201 13.1627 27.2308C13.1627 27.2308 12.4401 25.9188 11.0666 25.8215C11.0666 25.8215 9.73408 25.8044 10.9726 26.6534C10.9726 26.6534 11.8695 27.0737 12.4913 28.6522C12.4913 28.6522 13.2823 31.0917 17.0833 30.2648V32.8085C17.0833 33.169 16.863 33.5927 16.1813 33.4663C10.7488 31.6605 6.83333 26.5373 6.83333 20.5C6.83333 12.9509 12.9526 6.83333 20.5 6.83333C28.0474 6.83333 34.1667 12.9509 34.1667 20.5C34.1667 26.5355 30.2563 31.6571 24.8289 33.4663Z" fill="black"/>
</g>
<defs>
<clipPath id="clip0_2_48">
<rect width="41" height="41" fill="white"/>
</clipPath>
</defs>
</svg>
