<svg width="41" height="41" viewBox="0 0 41 41" fill="none" xmlns="http://www.w3.org/2000/svg">
<g clip-path="url(#clip0_2_52)">
<path d="M32.4583 0H8.54167C3.82496 0 0 3.82496 0 8.54167V32.4583C0 37.175 3.82496 41 8.54167 41H32.4583C37.1768 41 41 37.175 41 32.4583V8.54167C41 3.82496 37.1768 0 32.4583 0ZM32.2209 15.7799C32.5779 23.6673 26.6961 32.4618 16.2821 32.4618C13.1149 32.4618 10.168 31.5341 7.68579 29.942C10.6617 30.2922 13.6308 29.467 15.9883 27.6203C13.5334 27.5742 11.4629 25.953 10.7505 23.7253C11.6303 23.8927 12.4948 23.8432 13.2823 23.6297C10.5848 23.0881 8.72446 20.6589 8.78425 18.0605C9.53933 18.4807 10.4055 18.7336 11.3228 18.7626C8.82696 17.0936 8.11971 13.7965 9.58717 11.275C12.353 14.6678 16.4854 16.9005 21.1458 17.1346C20.3275 13.6274 22.9908 10.25 26.6107 10.25C28.2217 10.25 29.6806 10.9299 30.7022 12.0215C31.98 11.7704 33.181 11.304 34.2658 10.6617C33.8455 11.972 32.9572 13.0705 31.8006 13.764C32.935 13.6274 34.0163 13.3267 35.0208 12.8808C34.2709 14.0015 33.3193 14.9889 32.2209 15.7799Z" fill="#1DA1F2"/>
</g>
<defs>
<clipPath id="clip0_2_52">
<rect width="41" height="41" fill="white"/>
</clipPath>
</defs>
</svg>
